<svg width="24" height="24" viewBox="0 0 24 24" fill="none" xmlns="http://www.w3.org/2000/svg">
<mask id="path-1-inside-1_155_2194" fill="white">
<path d="M15.07 2H8.9C6.2 2 4 3.07 4 5.79V20.97C4 21.53 4.45 21.99 5.01 21.99C5.18 21.99 5.351 21.939 5.5 21.86L11.99 18.62L18.47 21.86C18.71 22 19 22.04 19.26 21.96C19.53 21.88 19.75 21.7 19.88 21.46C19.96 21.31 20 21.14 20 20.97V5.79C19.97 3.07 17.78 2 15.07 2Z"/>
</mask>
<path d="M5.5 21.86L5.05334 20.9653L5.04238 20.9708L5.03157 20.9765L5.5 21.86ZM11.99 18.62L12.4372 17.7256L11.9903 17.5021L11.5433 17.7253L11.99 18.62ZM18.47 21.86L18.9739 20.9962L18.946 20.98L18.9172 20.9656L18.47 21.86ZM19.26 21.96L18.9759 21.0011L18.9659 21.0042L19.26 21.96ZM19.88 21.46L20.7593 21.9363L20.7624 21.9306L19.88 21.46ZM20 5.79H21.0001L20.9999 5.77897L20 5.79ZM15.07 1H8.9V3H15.07V1ZM8.9 1C7.44197 1 5.98985 1.28508 4.87265 2.04981C3.70045 2.85219 3 4.11526 3 5.79H5C5 4.74474 5.39955 4.11281 6.00235 3.70019C6.66015 3.24992 7.65803 3 8.9 3V1ZM3 5.79V20.97H5V5.79H3ZM3 20.97C3 22.0694 3.88493 22.99 5.01 22.99V20.99C5.00864 20.99 5.00842 20.9899 5.00896 20.99C5.00944 20.9901 5.00989 20.9902 5.01014 20.9904C5.01055 20.9905 5.00914 20.99 5.0069 20.9877C5.00463 20.9854 5.00283 20.9827 5.00172 20.98C5.00087 20.978 5 20.9751 5 20.97H3ZM5.01 22.99C5.37409 22.99 5.70504 22.8832 5.96843 22.7435L5.03157 20.9765C5.01734 20.984 5.00561 20.9883 4.99877 20.9901C4.99187 20.992 4.99566 20.99 5.01 20.99V22.99ZM5.94666 22.7547L12.4367 19.5147L11.5433 17.7253L5.05334 20.9653L5.94666 22.7547ZM11.5428 19.5144L18.0228 22.7544L18.9172 20.9656L12.4372 17.7256L11.5428 19.5144ZM17.9661 22.7238C18.4295 22.9941 19.0076 23.0839 19.5541 22.9158L18.9659 21.0042C18.9806 20.9997 18.9878 21.001 18.9861 21.0008C18.9854 21.0007 18.9837 21.0004 18.9812 20.9996C18.9787 20.9987 18.9762 20.9976 18.9739 20.9962L17.9661 22.7238ZM19.5441 22.9188C20.0677 22.7636 20.5023 22.4106 20.7593 21.9363L19.0007 20.9837C18.9986 20.9877 18.9961 20.9905 18.9933 20.9928C18.9906 20.995 18.9854 20.9984 18.9759 21.0012L19.5441 22.9188ZM20.7624 21.9306C20.9241 21.6272 21 21.2942 21 20.97H19C19 20.9769 18.9992 20.9828 18.9981 20.9869C18.9972 20.991 18.9965 20.9916 18.9976 20.9894L20.7624 21.9306ZM21 20.97V5.79H19V20.97H21ZM20.9999 5.77897C20.9815 4.10851 20.2765 2.84958 19.1038 2.04907C17.9845 1.28509 16.5331 1 15.07 1V3C16.3169 3 17.3155 3.24991 17.9762 3.70093C18.5835 4.11542 18.9885 4.75149 19.0001 5.80103L20.9999 5.77897Z" fill="white" mask="url(#path-1-inside-1_155_2194)"/>
</svg>
