<svg width="16" height="16" viewBox="0 0 16 16" fill="none" xmlns="http://www.w3.org/2000/svg">
<path fill-rule="evenodd" clip-rule="evenodd" d="M10.9406 1.84591L10.9412 2.34566C12.7777 2.48959 13.9908 3.74096 13.9927 5.66L14 11.2772C14.0026 13.3695 12.6882 14.6568 10.5812 14.6602L5.43459 14.6668C3.3408 14.6695 2.00988 13.3515 2.00724 11.2532L2 5.70198C1.99737 3.77028 3.16768 2.52224 5.00411 2.35365L5.00346 1.8539C5.0028 1.56072 5.22001 1.34016 5.50963 1.34016C5.79924 1.33949 6.01645 1.55938 6.01711 1.85257L6.01777 2.319L9.92759 2.31367L9.92693 1.84724C9.92627 1.55405 10.1435 1.33416 10.4331 1.3335C10.7161 1.33283 10.9399 1.55272 10.9406 1.84591ZM3.01431 5.90787L12.9797 5.89455V5.66133C12.9514 4.22871 12.2327 3.47709 10.9426 3.36515L10.9432 3.87822C10.9432 4.16475 10.7201 4.39196 10.437 4.39196C10.1474 4.39263 9.92956 4.16608 9.92956 3.87955L9.9289 3.33983L6.01908 3.34516L6.01974 3.88422C6.01974 4.17141 5.80318 4.39796 5.51357 4.39796C5.22395 4.39863 5.00608 4.17274 5.00608 3.88555L5.00542 3.37248C3.7219 3.50108 3.01168 4.25537 3.01365 5.70064L3.01431 5.90787ZM10.1599 8.93636V8.94369C10.1665 9.2502 10.4166 9.48275 10.7201 9.47609C11.0163 9.46876 11.2526 9.21488 11.246 8.90837C11.2322 8.61518 10.9946 8.37597 10.699 8.37664C10.3962 8.3833 10.1593 8.62984 10.1599 8.93636ZM10.7036 11.9282C10.4008 11.9215 10.1566 11.669 10.156 11.3625C10.1494 11.056 10.3923 10.8021 10.6951 10.7948H10.7016C11.011 10.7948 11.2618 11.0473 11.2618 11.3605C11.2624 11.6737 11.0123 11.9275 10.7036 11.9282ZM7.44808 8.94702C7.46124 9.25353 7.71202 9.49274 8.01481 9.47942C8.311 9.46542 8.5473 9.21222 8.53414 8.9057C8.5269 8.60585 8.28336 8.37264 7.98716 8.3733C7.68438 8.38663 7.44742 8.6405 7.44808 8.94702ZM8.01743 11.8982C7.71465 11.9115 7.46453 11.6723 7.45071 11.3658C7.45071 11.0593 7.68701 10.8061 7.98979 10.7921C8.28599 10.7914 8.53019 11.0246 8.53677 11.3238C8.55059 11.631 8.31363 11.8842 8.01743 11.8982ZM4.7362 8.97034C4.74937 9.27685 5.00015 9.51673 5.30293 9.50274C5.59913 9.48941 5.83543 9.23554 5.82161 8.92903C5.81502 8.62918 5.57148 8.39596 5.27463 8.39663C4.97185 8.40995 4.73555 8.66383 4.7362 8.97034ZM5.30558 11.9015C5.0028 11.9155 4.75267 11.6757 4.73885 11.3691C4.73819 11.0626 4.97515 10.8088 5.27793 10.7954C5.57413 10.7948 5.81833 11.028 5.82491 11.3278C5.83873 11.6343 5.60243 11.8882 5.30558 11.9015Z" fill="#A5A5A5"/>
</svg>
