<svg width="48" height="41" viewBox="0 0 48 41" fill="none" xmlns="http://www.w3.org/2000/svg">
<path fill-rule="evenodd" clip-rule="evenodd" d="M19.81 2H28.191C31.28 2 33 3.78 33 6.83V17.16C33 20.26 31.28 22 28.191 22H19.81C16.77 22 15 20.26 15 17.16V6.83C15 3.78 16.77 2 19.81 2ZM20.08 6.66V6.65H23.069C23.5 6.65 23.85 7 23.85 7.429C23.85 7.87 23.5 8.22 23.069 8.22H20.08C19.649 8.22 19.3 7.87 19.3 7.44C19.3 7.01 19.649 6.66 20.08 6.66ZM20.08 12.74H27.92C28.35 12.74 28.7 12.39 28.7 11.96C28.7 11.53 28.35 11.179 27.92 11.179H20.08C19.649 11.179 19.3 11.53 19.3 11.96C19.3 12.39 19.649 12.74 20.08 12.74ZM20.08 17.31H27.92C28.319 17.27 28.62 16.929 28.62 16.53C28.62 16.12 28.319 15.78 27.92 15.74H20.08C19.78 15.71 19.49 15.85 19.33 16.11C19.17 16.36 19.17 16.69 19.33 16.95C19.49 17.2 19.78 17.35 20.08 17.31Z" fill="#F2F2F2"/>
<path d="M4.96 35.14C3.83333 35.14 2.97333 34.8267 2.38 34.2C1.79333 33.5733 1.5 32.6833 1.5 31.53C1.5 30.9567 1.59 30.4467 1.77 30C1.95 29.5467 2.19667 29.1667 2.51 28.86C2.82333 28.5467 3.19667 28.31 3.63 28.15C4.06333 27.99 4.53333 27.91 5.04 27.91C5.33333 27.91 5.6 27.9333 5.84 27.98C6.08 28.02 6.29 28.07 6.47 28.13C6.65 28.1833 6.8 28.24 6.92 28.3C7.04 28.36 7.12667 28.4067 7.18 28.44L6.73 29.7C6.51667 29.5867 6.26667 29.49 5.98 29.41C5.7 29.33 5.38 29.29 5.02 29.29C4.78 29.29 4.54333 29.33 4.31 29.41C4.08333 29.49 3.88 29.62 3.7 29.8C3.52667 29.9733 3.38667 30.2 3.28 30.48C3.17333 30.76 3.12 31.1 3.12 31.5C3.12 31.82 3.15333 32.12 3.22 32.4C3.29333 32.6733 3.40667 32.91 3.56 33.11C3.72 33.31 3.92667 33.47 4.18 33.59C4.43333 33.7033 4.74 33.76 5.1 33.76C5.32667 33.76 5.53 33.7467 5.71 33.72C5.89 33.6933 6.05 33.6633 6.19 33.63C6.33 33.59 6.45333 33.5467 6.56 33.5C6.66667 33.4533 6.76333 33.41 6.85 33.37L7.28 34.62C7.06 34.7533 6.75 34.8733 6.35 34.98C5.95 35.0867 5.48667 35.14 4.96 35.14ZM12.8222 32.36C12.8222 32.7733 12.7622 33.1533 12.6422 33.5C12.5222 33.84 12.3489 34.1333 12.1222 34.38C11.8955 34.62 11.6222 34.8067 11.3022 34.94C10.9889 35.0733 10.6355 35.14 10.2422 35.14C9.85552 35.14 9.50219 35.0733 9.18219 34.94C8.86885 34.8067 8.59885 34.62 8.37219 34.38C8.14552 34.1333 7.96885 33.84 7.84219 33.5C7.71552 33.1533 7.65219 32.7733 7.65219 32.36C7.65219 31.9467 7.71552 31.57 7.84219 31.23C7.97552 30.89 8.15552 30.6 8.38219 30.36C8.61552 30.12 8.88885 29.9333 9.20219 29.8C9.52219 29.6667 9.86885 29.6 10.2422 29.6C10.6222 29.6 10.9689 29.6667 11.2822 29.8C11.6022 29.9333 11.8755 30.12 12.1022 30.36C12.3289 30.6 12.5055 30.89 12.6322 31.23C12.7589 31.57 12.8222 31.9467 12.8222 32.36ZM11.3022 32.36C11.3022 31.9 11.2089 31.54 11.0222 31.28C10.8422 31.0133 10.5822 30.88 10.2422 30.88C9.90219 30.88 9.63885 31.0133 9.45219 31.28C9.26552 31.54 9.17219 31.9 9.17219 32.36C9.17219 32.82 9.26552 33.1867 9.45219 33.46C9.63885 33.7267 9.90219 33.86 10.2422 33.86C10.5822 33.86 10.8422 33.7267 11.0222 33.46C11.2089 33.1867 11.3022 32.82 11.3022 32.36ZM13.8114 29.92C14.0647 29.8467 14.3914 29.78 14.7914 29.72C15.1914 29.6533 15.6114 29.62 16.0514 29.62C16.4981 29.62 16.8681 29.68 17.1614 29.8C17.4614 29.9133 17.6981 30.0767 17.8714 30.29C18.0447 30.5033 18.1681 30.7567 18.2414 31.05C18.3147 31.3433 18.3514 31.67 18.3514 32.03V35H16.8614V32.21C16.8614 31.73 16.7981 31.39 16.6714 31.19C16.5447 30.99 16.3081 30.89 15.9614 30.89C15.8547 30.89 15.7414 30.8967 15.6214 30.91C15.5014 30.9167 15.3947 30.9267 15.3014 30.94V35H13.8114V29.92ZM19.4851 28.43L20.9751 28.19V29.74H22.7651V30.98H20.9751V32.83C20.9751 33.1433 21.0284 33.3933 21.1351 33.58C21.2484 33.7667 21.4717 33.86 21.8051 33.86C21.9651 33.86 22.1284 33.8467 22.2951 33.82C22.4684 33.7867 22.6251 33.7433 22.7651 33.69L22.9751 34.85C22.7951 34.9233 22.5951 34.9867 22.3751 35.04C22.1551 35.0933 21.8851 35.12 21.5651 35.12C21.1584 35.12 20.8217 35.0667 20.5551 34.96C20.2884 34.8467 20.0751 34.6933 19.9151 34.5C19.7551 34.3 19.6417 34.06 19.5751 33.78C19.5151 33.5 19.4851 33.19 19.4851 32.85V28.43ZM26.9834 31.06C26.8501 31.0267 26.6934 30.9933 26.5134 30.96C26.3334 30.92 26.1401 30.9 25.9334 30.9C25.8401 30.9 25.7268 30.91 25.5934 30.93C25.4668 30.9433 25.3701 30.96 25.3034 30.98V35H23.8134V30.02C24.0801 29.9267 24.3934 29.84 24.7534 29.76C25.1201 29.6733 25.5268 29.63 25.9734 29.63C26.0534 29.63 26.1501 29.6367 26.2634 29.65C26.3768 29.6567 26.4901 29.67 26.6034 29.69C26.7168 29.7033 26.8301 29.7233 26.9434 29.75C27.0568 29.77 27.1534 29.7967 27.2334 29.83L26.9834 31.06ZM29.7795 33.96C29.9262 33.96 30.0662 33.9567 30.1995 33.95C30.3329 33.9433 30.4395 33.9333 30.5195 33.92V32.79C30.4595 32.7767 30.3695 32.7633 30.2495 32.75C30.1295 32.7367 30.0195 32.73 29.9195 32.73C29.7795 32.73 29.6462 32.74 29.5195 32.76C29.3995 32.7733 29.2929 32.8033 29.1995 32.85C29.1062 32.8967 29.0329 32.96 28.9795 33.04C28.9262 33.12 28.8995 33.22 28.8995 33.34C28.8995 33.5733 28.9762 33.7367 29.1295 33.83C29.2895 33.9167 29.5062 33.96 29.7795 33.96ZM29.6595 29.6C30.0995 29.6 30.4662 29.65 30.7595 29.75C31.0529 29.85 31.2862 29.9933 31.4595 30.18C31.6395 30.3667 31.7662 30.5933 31.8395 30.86C31.9129 31.1267 31.9495 31.4233 31.9495 31.75V34.85C31.7362 34.8967 31.4395 34.95 31.0595 35.01C30.6795 35.0767 30.2195 35.11 29.6795 35.11C29.3395 35.11 29.0295 35.08 28.7495 35.02C28.4762 34.96 28.2395 34.8633 28.0395 34.73C27.8395 34.59 27.6862 34.41 27.5795 34.19C27.4729 33.97 27.4195 33.7 27.4195 33.38C27.4195 33.0733 27.4795 32.8133 27.5995 32.6C27.7262 32.3867 27.8929 32.2167 28.0995 32.09C28.3062 31.9633 28.5429 31.8733 28.8095 31.82C29.0762 31.76 29.3529 31.73 29.6395 31.73C29.8329 31.73 30.0029 31.74 30.1495 31.76C30.3029 31.7733 30.4262 31.7933 30.5195 31.82V31.68C30.5195 31.4267 30.4429 31.2233 30.2895 31.07C30.1362 30.9167 29.8695 30.84 29.4895 30.84C29.2362 30.84 28.9862 30.86 28.7395 30.9C28.4929 30.9333 28.2795 30.9833 28.0995 31.05L27.9095 29.85C27.9962 29.8233 28.1029 29.7967 28.2295 29.77C28.3629 29.7367 28.5062 29.71 28.6595 29.69C28.8129 29.6633 28.9729 29.6433 29.1395 29.63C29.3129 29.61 29.4862 29.6 29.6595 29.6ZM32.8819 32.37C32.8819 31.99 32.9419 31.6333 33.0619 31.3C33.1885 30.96 33.3685 30.6667 33.6019 30.42C33.8352 30.1667 34.1185 29.9667 34.4519 29.82C34.7852 29.6733 35.1652 29.6 35.5919 29.6C35.8719 29.6 36.1285 29.6267 36.3619 29.68C36.5952 29.7267 36.8219 29.7967 37.0419 29.89L36.7319 31.08C36.5919 31.0267 36.4385 30.98 36.2719 30.94C36.1052 30.9 35.9185 30.88 35.7119 30.88C35.2719 30.88 34.9419 31.0167 34.7219 31.29C34.5085 31.5633 34.4019 31.9233 34.4019 32.37C34.4019 32.8433 34.5019 33.21 34.7019 33.47C34.9085 33.73 35.2652 33.86 35.7719 33.86C35.9519 33.86 36.1452 33.8433 36.3519 33.81C36.5585 33.7767 36.7485 33.7233 36.9219 33.65L37.1319 34.87C36.9585 34.9433 36.7419 35.0067 36.4819 35.06C36.2219 35.1133 35.9352 35.14 35.6219 35.14C35.1419 35.14 34.7285 35.07 34.3819 34.93C34.0352 34.7833 33.7485 34.5867 33.5219 34.34C33.3019 34.0933 33.1385 33.8033 33.0319 33.47C32.9319 33.13 32.8819 32.7633 32.8819 32.37ZM37.9169 28.43L39.4069 28.19V29.74H41.1969V30.98H39.4069V32.83C39.4069 33.1433 39.4602 33.3933 39.5669 33.58C39.6802 33.7667 39.9035 33.86 40.2369 33.86C40.3969 33.86 40.5602 33.8467 40.7269 33.82C40.9002 33.7867 41.0569 33.7433 41.1969 33.69L41.4069 34.85C41.2269 34.9233 41.0269 34.9867 40.8069 35.04C40.5869 35.0933 40.3169 35.12 39.9969 35.12C39.5902 35.12 39.2535 35.0667 38.9869 34.96C38.7202 34.8467 38.5069 34.6933 38.3469 34.5C38.1869 34.3 38.0735 34.06 38.0069 33.78C37.9469 33.5 37.9169 33.19 37.9169 32.85V28.43ZM43.7552 33.93C44.0286 33.93 44.2219 33.9033 44.3352 33.85C44.4486 33.7967 44.5052 33.6933 44.5052 33.54C44.5052 33.42 44.4319 33.3167 44.2852 33.23C44.1386 33.1367 43.9152 33.0333 43.6152 32.92C43.3819 32.8333 43.1686 32.7433 42.9752 32.65C42.7886 32.5567 42.6286 32.4467 42.4952 32.32C42.3619 32.1867 42.2586 32.03 42.1852 31.85C42.1119 31.67 42.0752 31.4533 42.0752 31.2C42.0752 30.7067 42.2586 30.3167 42.6252 30.03C42.9919 29.7433 43.4952 29.6 44.1352 29.6C44.4552 29.6 44.7619 29.63 45.0552 29.69C45.3486 29.7433 45.5819 29.8033 45.7552 29.87L45.4952 31.03C45.3219 30.97 45.1319 30.9167 44.9252 30.87C44.7252 30.8233 44.4986 30.8 44.2452 30.8C43.7786 30.8 43.5452 30.93 43.5452 31.19C43.5452 31.25 43.5552 31.3033 43.5752 31.35C43.5952 31.3967 43.6352 31.4433 43.6952 31.49C43.7552 31.53 43.8352 31.5767 43.9352 31.63C44.0419 31.6767 44.1752 31.73 44.3352 31.79C44.6619 31.91 44.9319 32.03 45.1452 32.15C45.3586 32.2633 45.5252 32.39 45.6452 32.53C45.7719 32.6633 45.8586 32.8133 45.9052 32.98C45.9586 33.1467 45.9852 33.34 45.9852 33.56C45.9852 34.08 45.7886 34.4733 45.3952 34.74C45.0086 35.0067 44.4586 35.14 43.7452 35.14C43.2786 35.14 42.8886 35.1 42.5752 35.02C42.2686 34.94 42.0552 34.8733 41.9352 34.82L42.1852 33.61C42.4386 33.71 42.6986 33.79 42.9652 33.85C43.2319 33.9033 43.4952 33.93 43.7552 33.93Z" fill="#F2F2F2"/>
</svg>
