<svg width="88" height="88" viewBox="0 0 88 88" fill="none" xmlns="http://www.w3.org/2000/svg">
<path fill-rule="evenodd" clip-rule="evenodd" d="M28.6367 7.3335H59.367C70.6933 7.3335 77 13.8602 77 25.0435V62.9202C77 74.2868 70.6933 80.6668 59.367 80.6668H28.6367C17.49 80.6668 11 74.2868 11 62.9202V25.0435C11 13.8602 17.49 7.3335 28.6367 7.3335ZM29.6261 24.4199V24.3832H40.5858C42.1661 24.3832 43.4495 25.6666 43.4495 27.2396C43.4495 28.8566 42.1661 30.1399 40.5858 30.1399H29.6261C28.0458 30.1399 26.7661 28.8566 26.7661 27.2799C26.7661 25.7032 28.0458 24.4199 29.6261 24.4199ZM29.6261 46.7134H58.3728C59.9495 46.7134 61.2328 45.43 61.2328 43.8534C61.2328 42.2767 59.9495 40.9897 58.3728 40.9897H29.6261C28.0458 40.9897 26.7661 42.2767 26.7661 43.8534C26.7661 45.43 28.0458 46.7134 29.6261 46.7134ZM29.6266 63.4697H58.3732C59.8362 63.3231 60.9399 62.0727 60.9399 60.6097C60.9399 59.1064 59.8362 57.8597 58.3732 57.7131H29.6266C28.5266 57.6031 27.4632 58.1164 26.8766 59.0697C26.2899 59.9864 26.2899 61.1964 26.8766 62.1497C27.4632 63.0664 28.5266 63.6164 29.6266 63.4697Z" fill="white"/>
</svg>
