<svg width="20" height="20" viewBox="0 0 20 20" fill="none" xmlns="http://www.w3.org/2000/svg">
<g opacity="0.4">
<path d="M12.5582 9.37484L11.8082 10.1415C11.2082 10.7415 10.8332 11.2498 10.8332 12.4998H9.1665V12.0832C9.1665 11.1582 9.5415 10.3248 10.1415 9.72484L11.1748 8.67484C11.4832 8.37484 11.6665 7.95817 11.6665 7.49984C11.6665 6.57484 10.9165 5.83317 9.99984 5.83317C9.55781 5.83317 9.13389 6.00877 8.82133 6.32133C8.50877 6.63389 8.33317 7.05781 8.33317 7.49984H6.6665C6.6665 6.61578 7.01769 5.76794 7.64281 5.14281C8.26794 4.51769 9.11578 4.1665 9.99984 4.1665C10.8839 4.1665 11.7317 4.51769 12.3569 5.14281C12.982 5.76794 13.3332 6.61578 13.3332 7.49984C13.3332 8.23317 13.0332 8.8915 12.5582 9.37484ZM10.8332 15.8332H9.1665V14.1665H10.8332V15.8332ZM9.99984 1.6665C8.90549 1.6665 7.82186 1.88205 6.81081 2.30084C5.79976 2.71963 4.8811 3.33346 4.10728 4.10728C2.54448 5.67008 1.6665 7.7897 1.6665 9.99984C1.6665 12.21 2.54448 14.3296 4.10728 15.8924C4.8811 16.6662 5.79976 17.28 6.81081 17.6988C7.82186 18.1176 8.90549 18.3332 9.99984 18.3332C12.21 18.3332 14.3296 17.4552 15.8924 15.8924C17.4552 14.3296 18.3332 12.21 18.3332 9.99984C18.3332 5.3915 14.5832 1.6665 9.99984 1.6665Z" fill="#F1F1F1"/>
</g>
</svg>
