<svg width="48" height="41" viewBox="0 0 48 41" fill="none" xmlns="http://www.w3.org/2000/svg">
<path d="M10.98 28.07H12.54V35H10.98V32.06H8.36V35H6.8V28.07H8.36V30.72H10.98V28.07ZM15.3688 35H13.8788V29.74H15.3688V35ZM15.5088 28.22C15.5088 28.4933 15.4188 28.71 15.2388 28.87C15.0654 29.0233 14.8588 29.1 14.6188 29.1C14.3788 29.1 14.1688 29.0233 13.9888 28.87C13.8154 28.71 13.7288 28.4933 13.7288 28.22C13.7288 27.9467 13.8154 27.7333 13.9888 27.58C14.1688 27.42 14.3788 27.34 14.6188 27.34C14.8588 27.34 15.0654 27.42 15.2388 27.58C15.4188 27.7333 15.5088 27.9467 15.5088 28.22ZM18.1144 33.93C18.3877 33.93 18.581 33.9033 18.6944 33.85C18.8077 33.7967 18.8644 33.6933 18.8644 33.54C18.8644 33.42 18.791 33.3167 18.6444 33.23C18.4977 33.1367 18.2744 33.0333 17.9744 32.92C17.741 32.8333 17.5277 32.7433 17.3344 32.65C17.1477 32.5567 16.9877 32.4467 16.8544 32.32C16.721 32.1867 16.6177 32.03 16.5444 31.85C16.471 31.67 16.4344 31.4533 16.4344 31.2C16.4344 30.7067 16.6177 30.3167 16.9844 30.03C17.351 29.7433 17.8544 29.6 18.4944 29.6C18.8144 29.6 19.121 29.63 19.4144 29.69C19.7077 29.7433 19.941 29.8033 20.1144 29.87L19.8544 31.03C19.681 30.97 19.491 30.9167 19.2844 30.87C19.0844 30.8233 18.8577 30.8 18.6044 30.8C18.1377 30.8 17.9044 30.93 17.9044 31.19C17.9044 31.25 17.9144 31.3033 17.9344 31.35C17.9544 31.3967 17.9944 31.4433 18.0544 31.49C18.1144 31.53 18.1944 31.5767 18.2944 31.63C18.401 31.6767 18.5344 31.73 18.6944 31.79C19.021 31.91 19.291 32.03 19.5044 32.15C19.7177 32.2633 19.8844 32.39 20.0044 32.53C20.131 32.6633 20.2177 32.8133 20.2644 32.98C20.3177 33.1467 20.3444 33.34 20.3444 33.56C20.3444 34.08 20.1477 34.4733 19.7544 34.74C19.3677 35.0067 18.8177 35.14 18.1044 35.14C17.6377 35.14 17.2477 35.1 16.9344 35.02C16.6277 34.94 16.4144 34.8733 16.2944 34.82L16.5444 33.61C16.7977 33.71 17.0577 33.79 17.3244 33.85C17.591 33.9033 17.8544 33.93 18.1144 33.93ZM21.2429 28.43L22.7329 28.19V29.74H24.5229V30.98H22.7329V32.83C22.7329 33.1433 22.7862 33.3933 22.8929 33.58C23.0062 33.7667 23.2296 33.86 23.5629 33.86C23.7229 33.86 23.8862 33.8467 24.0529 33.82C24.2262 33.7867 24.3829 33.7433 24.5229 33.69L24.7329 34.85C24.5529 34.9233 24.3529 34.9867 24.1329 35.04C23.9129 35.0933 23.6429 35.12 23.3229 35.12C22.9162 35.12 22.5796 35.0667 22.3129 34.96C22.0462 34.8467 21.8329 34.6933 21.6729 34.5C21.5129 34.3 21.3996 34.06 21.3329 33.78C21.2729 33.5 21.2429 33.19 21.2429 32.85V28.43ZM30.2959 32.36C30.2959 32.7733 30.2359 33.1533 30.1159 33.5C29.9959 33.84 29.8226 34.1333 29.5959 34.38C29.3693 34.62 29.0959 34.8067 28.7759 34.94C28.4626 35.0733 28.1093 35.14 27.7159 35.14C27.3293 35.14 26.9759 35.0733 26.6559 34.94C26.3426 34.8067 26.0726 34.62 25.8459 34.38C25.6193 34.1333 25.4426 33.84 25.3159 33.5C25.1893 33.1533 25.1259 32.7733 25.1259 32.36C25.1259 31.9467 25.1893 31.57 25.3159 31.23C25.4493 30.89 25.6293 30.6 25.8559 30.36C26.0893 30.12 26.3626 29.9333 26.6759 29.8C26.9959 29.6667 27.3426 29.6 27.7159 29.6C28.0959 29.6 28.4426 29.6667 28.7559 29.8C29.0759 29.9333 29.3493 30.12 29.5759 30.36C29.8026 30.6 29.9793 30.89 30.1059 31.23C30.2326 31.57 30.2959 31.9467 30.2959 32.36ZM28.7759 32.36C28.7759 31.9 28.6826 31.54 28.4959 31.28C28.3159 31.0133 28.0559 30.88 27.7159 30.88C27.3759 30.88 27.1126 31.0133 26.9259 31.28C26.7393 31.54 26.6459 31.9 26.6459 32.36C26.6459 32.82 26.7393 33.1867 26.9259 33.46C27.1126 33.7267 27.3759 33.86 27.7159 33.86C28.0559 33.86 28.3159 33.7267 28.4959 33.46C28.6826 33.1867 28.7759 32.82 28.7759 32.36ZM34.4552 31.06C34.3218 31.0267 34.1652 30.9933 33.9852 30.96C33.8052 30.92 33.6118 30.9 33.4052 30.9C33.3118 30.9 33.1985 30.91 33.0652 30.93C32.9385 30.9433 32.8418 30.96 32.7752 30.98V35H31.2852V30.02C31.5518 29.9267 31.8652 29.84 32.2252 29.76C32.5918 29.6733 32.9985 29.63 33.4452 29.63C33.5252 29.63 33.6218 29.6367 33.7352 29.65C33.8485 29.6567 33.9618 29.67 34.0752 29.69C34.1885 29.7033 34.3018 29.7233 34.4152 29.75C34.5285 29.77 34.6252 29.7967 34.7052 29.83L34.4552 31.06ZM40.3214 29.74C40.0214 30.7533 39.7081 31.7033 39.3814 32.59C39.0547 33.4767 38.6981 34.3367 38.3114 35.17C38.1714 35.47 38.0314 35.7233 37.8914 35.93C37.7514 36.1433 37.5981 36.3167 37.4314 36.45C37.2647 36.59 37.0747 36.69 36.8614 36.75C36.6547 36.8167 36.4114 36.85 36.1314 36.85C35.8981 36.85 35.6814 36.8267 35.4814 36.78C35.2881 36.74 35.1281 36.6933 35.0014 36.64L35.2614 35.45C35.4147 35.5033 35.5514 35.54 35.6714 35.56C35.7914 35.58 35.9181 35.59 36.0514 35.59C36.3181 35.59 36.5214 35.5167 36.6614 35.37C36.8081 35.23 36.9314 35.0333 37.0314 34.78C36.6914 34.1133 36.3514 33.3667 36.0114 32.54C35.6714 31.7067 35.3514 30.7733 35.0514 29.74H36.6314C36.6981 30 36.7747 30.2833 36.8614 30.59C36.9547 30.89 37.0514 31.1967 37.1514 31.51C37.2514 31.8167 37.3514 32.1167 37.4514 32.41C37.5581 32.7033 37.6581 32.97 37.7514 33.21C37.8381 32.97 37.9281 32.7033 38.0214 32.41C38.1147 32.1167 38.2047 31.8167 38.2914 31.51C38.3847 31.1967 38.4714 30.89 38.5514 30.59C38.6381 30.2833 38.7147 30 38.7814 29.74H40.3214Z" fill="#F2F2F2"/>
<path fill-rule="evenodd" clip-rule="evenodd" d="M23 22C17.48 22 13 17.53 13 12C13 6.48 17.48 2 23 2C28.53 2 33 6.48 33 12C33 17.53 28.53 22 23 22ZM26.19 15.71C26.31 15.78 26.44 15.82 26.58 15.82C26.83 15.82 27.08 15.69 27.22 15.45C27.43 15.1 27.32 14.64 26.96 14.42L23.4 12.3V7.68C23.4 7.26 23.06 6.93 22.65 6.93C22.24 6.93 21.9 7.26 21.9 7.68V12.73C21.9 12.99 22.04 13.23 22.27 13.37L26.19 15.71Z" fill="#F2F2F2"/>
</svg>
