<svg width="26" height="26" viewBox="0 0 26 26" fill="none" xmlns="http://www.w3.org/2000/svg">
<g clip-path="url(#clip0_460_17)">
<path d="M3.00049 23.7688C3.00049 24.454 3.81604 24.8114 4.3198 24.3468C5.14985 23.5763 6.43025 23.566 7.2726 24.3228L8.94327 25.8135C9.22196 26.063 9.64427 26.0621 9.92153 25.8109L11.5679 24.3256C12.4034 23.5686 13.6766 23.5686 14.5121 24.3256L16.1584 25.8109C16.4357 26.0618 16.858 26.063 17.1367 25.8135L18.8074 24.3225C19.6497 23.5657 20.9304 23.5763 21.7602 24.3468C22.2639 24.8114 23.0795 24.454 23.0795 23.7688V5C23.0795 2.23858 20.8409 0 18.0795 0H8.00049C5.23907 0 3.00049 2.23858 3.00049 5V23.7688ZM8.14356 8.48041H17.5447C17.9493 8.48041 18.2772 8.8086 18.2772 9.21289C18.2772 9.61747 17.9493 9.94536 17.5447 9.94536H8.14356C7.73898 9.94536 7.41108 9.61747 7.41108 9.21289C7.41108 8.8086 7.73898 8.48041 8.14356 8.48041ZM8.14356 13.5728H17.5447C17.9493 13.5728 18.2772 13.9007 18.2772 14.3053C18.2772 14.7099 17.9493 15.0378 17.5447 15.0378H8.14356C7.73898 15.0378 7.41108 14.7099 7.41108 14.3053C7.41108 13.9007 7.73898 13.5728 8.14356 13.5728Z" fill="#00A795"/>
</g>
<defs>
<clipPath id="clip0_460_17">
<rect width="26" height="26" fill="white"/>
</clipPath>
</defs>
</svg>
