<svg width="48" height="41" viewBox="0 0 48 41" fill="none" xmlns="http://www.w3.org/2000/svg">
<path d="M18.45 35C18.0033 34.2067 17.52 33.4233 17 32.65C16.48 31.8767 15.9267 31.1467 15.34 30.46V35H13.8V28.07H15.07C15.29 28.29 15.5333 28.56 15.8 28.88C16.0667 29.2 16.3367 29.5433 16.61 29.91C16.89 30.27 17.1667 30.6467 17.44 31.04C17.7133 31.4267 17.97 31.8 18.21 32.16V28.07H19.76V35H18.45ZM20.8436 32.41C20.8436 31.9433 20.9136 31.5367 21.0536 31.19C21.2003 30.8367 21.3903 30.5433 21.6236 30.31C21.8569 30.0767 22.1236 29.9 22.4236 29.78C22.7303 29.66 23.0436 29.6 23.3636 29.6C24.1103 29.6 24.7003 29.83 25.1336 30.29C25.5669 30.7433 25.7836 31.4133 25.7836 32.3C25.7836 32.3867 25.7803 32.4833 25.7736 32.59C25.7669 32.69 25.7603 32.78 25.7536 32.86H22.3736C22.4069 33.1667 22.5503 33.41 22.8036 33.59C23.0569 33.77 23.3969 33.86 23.8236 33.86C24.0969 33.86 24.3636 33.8367 24.6236 33.79C24.8903 33.7367 25.1069 33.6733 25.2736 33.6L25.4736 34.81C25.3936 34.85 25.2869 34.89 25.1536 34.93C25.0203 34.97 24.8703 35.0033 24.7036 35.03C24.5436 35.0633 24.3703 35.09 24.1836 35.11C23.9969 35.13 23.8103 35.14 23.6236 35.14C23.1503 35.14 22.7369 35.07 22.3836 34.93C22.0369 34.79 21.7469 34.6 21.5136 34.36C21.2869 34.1133 21.1169 33.8233 21.0036 33.49C20.8969 33.1567 20.8436 32.7967 20.8436 32.41ZM24.3436 31.84C24.3369 31.7133 24.3136 31.59 24.2736 31.47C24.2403 31.35 24.1836 31.2433 24.1036 31.15C24.0303 31.0567 23.9336 30.98 23.8136 30.92C23.7003 30.86 23.5569 30.83 23.3836 30.83C23.2169 30.83 23.0736 30.86 22.9536 30.92C22.8336 30.9733 22.7336 31.0467 22.6536 31.14C22.5736 31.2333 22.5103 31.3433 22.4636 31.47C22.4236 31.59 22.3936 31.7133 22.3736 31.84H24.3436ZM29.9684 31.98C29.8351 32.4867 29.6918 32.99 29.5384 33.49C29.3918 33.99 29.2351 34.4933 29.0684 35H27.9084C27.7884 34.72 27.6584 34.3867 27.5184 34C27.3784 33.6133 27.2318 33.1933 27.0784 32.74C26.9318 32.28 26.7784 31.7967 26.6184 31.29C26.4651 30.7767 26.3151 30.26 26.1684 29.74H27.7384C27.7918 29.98 27.8484 30.2433 27.9084 30.53C27.9751 30.81 28.0418 31.1 28.1084 31.4C28.1818 31.7 28.2551 32.0033 28.3284 32.31C28.4084 32.61 28.4884 32.9 28.5684 33.18C28.6551 32.8867 28.7384 32.5867 28.8184 32.28C28.9051 31.9733 28.9851 31.6733 29.0584 31.38C29.1384 31.08 29.2118 30.7933 29.2784 30.52C29.3518 30.24 29.4151 29.98 29.4684 29.74H30.5484C30.6018 29.98 30.6618 30.24 30.7284 30.52C30.7951 30.7933 30.8651 31.08 30.9384 31.38C31.0118 31.6733 31.0884 31.9733 31.1684 32.28C31.2484 32.5867 31.3318 32.8867 31.4184 33.18C31.4984 32.9 31.5784 32.61 31.6584 32.31C31.7384 32.0033 31.8118 31.7 31.8784 31.4C31.9518 31.1 32.0184 30.81 32.0784 30.53C32.1451 30.2433 32.2051 29.98 32.2584 29.74H33.8084C33.6618 30.26 33.5084 30.7767 33.3484 31.29C33.1951 31.7967 33.0418 32.28 32.8884 32.74C32.7418 33.1933 32.5951 33.6133 32.4484 34C32.3084 34.3867 32.1784 34.72 32.0584 35H30.8984C30.7318 34.4933 30.5684 33.99 30.4084 33.49C30.2484 32.99 30.1018 32.4867 29.9684 31.98Z" fill="#F2F2F2"/>
<path fill-rule="evenodd" clip-rule="evenodd" d="M19.33 2H28.66C32.06 2 34 3.92 34 7.33V16.67C34 20.06 32.07 22 28.67 22H19.33C15.92 22 14 20.06 14 16.67V7.33C14 3.92 15.92 2 19.33 2ZM24.82 12.83H27.66C28.12 12.82 28.49 12.45 28.49 11.99C28.49 11.53 28.12 11.16 27.66 11.16H24.82V8.34C24.82 7.88 24.45 7.51 23.99 7.51C23.53 7.51 23.16 7.88 23.16 8.34V11.16H20.33C20.11 11.16 19.9 11.25 19.74 11.4C19.59 11.56 19.5 11.769 19.5 11.99C19.5 12.45 19.87 12.82 20.33 12.83H23.16V15.66C23.16 16.12 23.53 16.49 23.99 16.49C24.45 16.49 24.82 16.12 24.82 15.66V12.83Z" fill="#F2F2F2"/>
</svg>
