<svg width="48" height="41" viewBox="0 0 48 41" fill="none" xmlns="http://www.w3.org/2000/svg">
<path d="M9.88 29.99C10.9133 29.99 11.7067 30.1733 12.26 30.54C12.8133 30.9 13.09 31.4933 13.09 32.32C13.09 33.1533 12.81 33.7567 12.25 34.13C11.69 34.4967 10.89 34.68 9.85 34.68H9.36V37H7.8V30.17C8.14 30.1033 8.5 30.0567 8.88 30.03C9.26 30.0033 9.59333 29.99 9.88 29.99ZM9.98 31.32C9.86667 31.32 9.75333 31.3233 9.64 31.33C9.53333 31.3367 9.44 31.3433 9.36 31.35V33.35H9.85C10.39 33.35 10.7967 33.2767 11.07 33.13C11.3433 32.9833 11.48 32.71 11.48 32.31C11.48 32.1167 11.4433 31.9567 11.37 31.83C11.3033 31.7033 11.2033 31.6033 11.07 31.53C10.9433 31.45 10.7867 31.3967 10.6 31.37C10.4133 31.3367 10.2067 31.32 9.98 31.32ZM17.1405 33.06C17.0072 33.0267 16.8505 32.9933 16.6705 32.96C16.4905 32.92 16.2972 32.9 16.0905 32.9C15.9972 32.9 15.8839 32.91 15.7505 32.93C15.6239 32.9433 15.5272 32.96 15.4605 32.98V37H13.9705V32.02C14.2372 31.9267 14.5505 31.84 14.9105 31.76C15.2772 31.6733 15.6839 31.63 16.1305 31.63C16.2105 31.63 16.3072 31.6367 16.4205 31.65C16.5339 31.6567 16.6472 31.67 16.7605 31.69C16.8739 31.7033 16.9872 31.7233 17.1005 31.75C17.2139 31.77 17.3105 31.7967 17.3905 31.83L17.1405 33.06ZM22.8466 34.36C22.8466 34.7733 22.7866 35.1533 22.6666 35.5C22.5466 35.84 22.3733 36.1333 22.1466 36.38C21.92 36.62 21.6466 36.8067 21.3266 36.94C21.0133 37.0733 20.66 37.14 20.2666 37.14C19.88 37.14 19.5266 37.0733 19.2066 36.94C18.8933 36.8067 18.6233 36.62 18.3966 36.38C18.17 36.1333 17.9933 35.84 17.8666 35.5C17.74 35.1533 17.6766 34.7733 17.6766 34.36C17.6766 33.9467 17.74 33.57 17.8666 33.23C18 32.89 18.18 32.6 18.4066 32.36C18.64 32.12 18.9133 31.9333 19.2266 31.8C19.5466 31.6667 19.8933 31.6 20.2666 31.6C20.6466 31.6 20.9933 31.6667 21.3066 31.8C21.6266 31.9333 21.9 32.12 22.1266 32.36C22.3533 32.6 22.53 32.89 22.6566 33.23C22.7833 33.57 22.8466 33.9467 22.8466 34.36ZM21.3266 34.36C21.3266 33.9 21.2333 33.54 21.0466 33.28C20.8666 33.0133 20.6066 32.88 20.2666 32.88C19.9266 32.88 19.6633 33.0133 19.4766 33.28C19.29 33.54 19.1966 33.9 19.1966 34.36C19.1966 34.82 19.29 35.1867 19.4766 35.46C19.6633 35.7267 19.9266 35.86 20.2666 35.86C20.6066 35.86 20.8666 35.7267 21.0466 35.46C21.2333 35.1867 21.3266 34.82 21.3266 34.36ZM26.1159 29.24C26.3959 29.24 26.6259 29.2633 26.8059 29.31C26.9925 29.3567 27.1492 29.4067 27.2759 29.46L27.0159 30.63C26.9092 30.5833 26.7892 30.55 26.6559 30.53C26.5292 30.51 26.3992 30.5 26.2659 30.5C26.0859 30.5 25.9325 30.5267 25.8059 30.58C25.6859 30.6267 25.5892 30.6933 25.5159 30.78C25.4492 30.8667 25.3992 30.97 25.3659 31.09C25.3392 31.21 25.3259 31.34 25.3259 31.48V31.74H27.1659V32.98H25.3259V37H23.8359V31.46C23.8359 30.78 24.0259 30.24 24.4059 29.84C24.7925 29.44 25.3625 29.24 26.1159 29.24ZM29.5159 37H28.0259V31.74H29.5159V37ZM29.6559 30.22C29.6559 30.4933 29.5659 30.71 29.3859 30.87C29.2125 31.0233 29.0059 31.1 28.7659 31.1C28.5259 31.1 28.3159 31.0233 28.1359 30.87C27.9625 30.71 27.8759 30.4933 27.8759 30.22C27.8759 29.9467 27.9625 29.7333 28.1359 29.58C28.3159 29.42 28.5259 29.34 28.7659 29.34C29.0059 29.34 29.2125 29.42 29.3859 29.58C29.5659 29.7333 29.6559 29.9467 29.6559 30.22ZM32.8509 37.1C32.4176 37.0933 32.0643 37.0467 31.7909 36.96C31.5243 36.8733 31.3109 36.7533 31.1509 36.6C30.9976 36.44 30.8909 36.25 30.8309 36.03C30.7776 35.8033 30.7509 35.55 30.7509 35.27V29.48L32.2409 29.24V34.97C32.2409 35.1033 32.2509 35.2233 32.2709 35.33C32.2909 35.4367 32.3276 35.5267 32.3809 35.6C32.4409 35.6733 32.5243 35.7333 32.6309 35.78C32.7376 35.8267 32.8809 35.8567 33.0609 35.87L32.8509 37.1ZM33.5 34.41C33.5 33.9433 33.57 33.5367 33.71 33.19C33.8567 32.8367 34.0467 32.5433 34.28 32.31C34.5133 32.0767 34.78 31.9 35.08 31.78C35.3867 31.66 35.7 31.6 36.02 31.6C36.7667 31.6 37.3567 31.83 37.79 32.29C38.2233 32.7433 38.44 33.4133 38.44 34.3C38.44 34.3867 38.4367 34.4833 38.43 34.59C38.4233 34.69 38.4167 34.78 38.41 34.86H35.03C35.0633 35.1667 35.2067 35.41 35.46 35.59C35.7133 35.77 36.0533 35.86 36.48 35.86C36.7533 35.86 37.02 35.8367 37.28 35.79C37.5467 35.7367 37.7633 35.6733 37.93 35.6L38.13 36.81C38.05 36.85 37.9433 36.89 37.81 36.93C37.6767 36.97 37.5267 37.0033 37.36 37.03C37.2 37.0633 37.0267 37.09 36.84 37.11C36.6533 37.13 36.4667 37.14 36.28 37.14C35.8067 37.14 35.3933 37.07 35.04 36.93C34.6933 36.79 34.4033 36.6 34.17 36.36C33.9433 36.1133 33.7733 35.8233 33.66 35.49C33.5533 35.1567 33.5 34.7967 33.5 34.41ZM37 33.84C36.9933 33.7133 36.97 33.59 36.93 33.47C36.8967 33.35 36.84 33.2433 36.76 33.15C36.6867 33.0567 36.59 32.98 36.47 32.92C36.3567 32.86 36.2133 32.83 36.04 32.83C35.8733 32.83 35.73 32.86 35.61 32.92C35.49 32.9733 35.39 33.0467 35.31 33.14C35.23 33.2333 35.1667 33.3433 35.12 33.47C35.08 33.59 35.05 33.7133 35.03 33.84H37Z" fill="#F2F2F2"/>
<path fill-rule="evenodd" clip-rule="evenodd" d="M28.294 9.29105C28.294 12.2281 25.9391 14.5831 23 14.5831C20.0619 14.5831 17.706 12.2281 17.706 9.29105C17.706 6.35402 20.0619 4 23 4C25.9391 4 28.294 6.35402 28.294 9.29105ZM23 24C18.6624 24 15 23.295 15 20.575C15 17.8539 18.6854 17.1739 23 17.1739C27.3386 17.1739 31 17.8789 31 20.599C31 23.32 27.3146 24 23 24Z" fill="#F2F2F2"/>
</svg>
