<svg width="48" height="41" viewBox="0 0 48 41" fill="none" xmlns="http://www.w3.org/2000/svg">
<path d="M11.69 35.81C11.91 35.81 12.09 35.7933 12.23 35.76C12.3767 35.72 12.4933 35.67 12.58 35.61C12.6667 35.5433 12.7267 35.4667 12.76 35.38C12.7933 35.2933 12.81 35.1967 12.81 35.09C12.81 34.8633 12.7033 34.6767 12.49 34.53C12.2767 34.3767 11.91 34.2133 11.39 34.04C11.1633 33.96 10.9367 33.87 10.71 33.77C10.4833 33.6633 10.28 33.5333 10.1 33.38C9.92 33.22 9.77333 33.03 9.66 32.81C9.54667 32.5833 9.49 32.31 9.49 31.99C9.49 31.67 9.55 31.3833 9.67 31.13C9.79 30.87 9.96 30.65 10.18 30.47C10.4 30.29 10.6667 30.1533 10.98 30.06C11.2933 29.96 11.6467 29.91 12.04 29.91C12.5067 29.91 12.91 29.96 13.25 30.06C13.59 30.16 13.87 30.27 14.09 30.39L13.64 31.62C13.4467 31.52 13.23 31.4333 12.99 31.36C12.7567 31.28 12.4733 31.24 12.14 31.24C11.7667 31.24 11.4967 31.2933 11.33 31.4C11.17 31.5 11.09 31.6567 11.09 31.87C11.09 31.9967 11.12 32.1033 11.18 32.19C11.24 32.2767 11.3233 32.3567 11.43 32.43C11.5433 32.4967 11.67 32.56 11.81 32.62C11.9567 32.6733 12.1167 32.73 12.29 32.79C12.65 32.9233 12.9633 33.0567 13.23 33.19C13.4967 33.3167 13.7167 33.4667 13.89 33.64C14.07 33.8133 14.2033 34.0167 14.29 34.25C14.3767 34.4833 14.42 34.7667 14.42 35.1C14.42 35.7467 14.1933 36.25 13.74 36.61C13.2867 36.9633 12.6033 37.14 11.69 37.14C11.3833 37.14 11.1067 37.12 10.86 37.08C10.6133 37.0467 10.3933 37.0033 10.2 36.95C10.0133 36.8967 9.85 36.84 9.71 36.78C9.57667 36.72 9.46333 36.6633 9.37 36.61L9.81 35.37C10.0167 35.4833 10.27 35.5867 10.57 35.68C10.8767 35.7667 11.25 35.81 11.69 35.81ZM17.4825 35.96C17.6292 35.96 17.7692 35.9567 17.9025 35.95C18.0358 35.9433 18.1425 35.9333 18.2225 35.92V34.79C18.1625 34.7767 18.0725 34.7633 17.9525 34.75C17.8325 34.7367 17.7225 34.73 17.6225 34.73C17.4825 34.73 17.3492 34.74 17.2225 34.76C17.1025 34.7733 16.9958 34.8033 16.9025 34.85C16.8092 34.8967 16.7358 34.96 16.6825 35.04C16.6292 35.12 16.6025 35.22 16.6025 35.34C16.6025 35.5733 16.6792 35.7367 16.8325 35.83C16.9925 35.9167 17.2092 35.96 17.4825 35.96ZM17.3625 31.6C17.8025 31.6 18.1692 31.65 18.4625 31.75C18.7558 31.85 18.9892 31.9933 19.1625 32.18C19.3425 32.3667 19.4692 32.5933 19.5425 32.86C19.6158 33.1267 19.6525 33.4233 19.6525 33.75V36.85C19.4392 36.8967 19.1425 36.95 18.7625 37.01C18.3825 37.0767 17.9225 37.11 17.3825 37.11C17.0425 37.11 16.7325 37.08 16.4525 37.02C16.1792 36.96 15.9425 36.8633 15.7425 36.73C15.5425 36.59 15.3892 36.41 15.2825 36.19C15.1758 35.97 15.1225 35.7 15.1225 35.38C15.1225 35.0733 15.1825 34.8133 15.3025 34.6C15.4292 34.3867 15.5958 34.2167 15.8025 34.09C16.0092 33.9633 16.2458 33.8733 16.5125 33.82C16.7792 33.76 17.0558 33.73 17.3425 33.73C17.5358 33.73 17.7058 33.74 17.8525 33.76C18.0058 33.7733 18.1292 33.7933 18.2225 33.82V33.68C18.2225 33.4267 18.1458 33.2233 17.9925 33.07C17.8392 32.9167 17.5725 32.84 17.1925 32.84C16.9392 32.84 16.6892 32.86 16.4425 32.9C16.1958 32.9333 15.9825 32.9833 15.8025 33.05L15.6125 31.85C15.6992 31.8233 15.8058 31.7967 15.9325 31.77C16.0658 31.7367 16.2092 31.71 16.3625 31.69C16.5158 31.6633 16.6758 31.6433 16.8425 31.63C17.0158 31.61 17.1892 31.6 17.3625 31.6ZM22.1379 37C21.7979 36.3333 21.4512 35.5533 21.0979 34.66C20.7512 33.7667 20.4212 32.7933 20.1079 31.74H21.6879C21.7546 32 21.8312 32.2833 21.9179 32.59C22.0112 32.89 22.1046 33.1967 22.1979 33.51C22.2979 33.8167 22.3946 34.1167 22.4879 34.41C22.5879 34.7033 22.6846 34.97 22.7779 35.21C22.8646 34.97 22.9579 34.7033 23.0579 34.41C23.1579 34.1167 23.2546 33.8167 23.3479 33.51C23.4479 33.1967 23.5412 32.89 23.6279 32.59C23.7212 32.2833 23.8012 32 23.8679 31.74H25.4079C25.0946 32.7933 24.7612 33.7667 24.4079 34.66C24.0612 35.5533 23.7179 36.3333 23.3779 37H22.1379ZM25.6542 34.41C25.6542 33.9433 25.7242 33.5367 25.8642 33.19C26.0109 32.8367 26.2009 32.5433 26.4342 32.31C26.6676 32.0767 26.9342 31.9 27.2342 31.78C27.5409 31.66 27.8542 31.6 28.1742 31.6C28.9209 31.6 29.5109 31.83 29.9442 32.29C30.3776 32.7433 30.5942 33.4133 30.5942 34.3C30.5942 34.3867 30.5909 34.4833 30.5842 34.59C30.5776 34.69 30.5709 34.78 30.5642 34.86H27.1842C27.2176 35.1667 27.3609 35.41 27.6142 35.59C27.8676 35.77 28.2076 35.86 28.6342 35.86C28.9076 35.86 29.1742 35.8367 29.4342 35.79C29.7009 35.7367 29.9176 35.6733 30.0842 35.6L30.2842 36.81C30.2042 36.85 30.0976 36.89 29.9642 36.93C29.8309 36.97 29.6809 37.0033 29.5142 37.03C29.3542 37.0633 29.1809 37.09 28.9942 37.11C28.8076 37.13 28.6209 37.14 28.4342 37.14C27.9609 37.14 27.5476 37.07 27.1942 36.93C26.8476 36.79 26.5576 36.6 26.3242 36.36C26.0976 36.1133 25.9276 35.8233 25.8142 35.49C25.7076 35.1567 25.6542 34.7967 25.6542 34.41ZM29.1542 33.84C29.1476 33.7133 29.1242 33.59 29.0842 33.47C29.0509 33.35 28.9942 33.2433 28.9142 33.15C28.8409 33.0567 28.7442 32.98 28.6242 32.92C28.5109 32.86 28.3676 32.83 28.1942 32.83C28.0276 32.83 27.8842 32.86 27.7642 32.92C27.6442 32.9733 27.5442 33.0467 27.4642 33.14C27.3842 33.2333 27.3209 33.3433 27.2742 33.47C27.2342 33.59 27.2042 33.7133 27.1842 33.84H29.1542ZM32.8491 34.33C32.8491 34.79 32.9524 35.16 33.1591 35.44C33.3657 35.72 33.6724 35.86 34.0791 35.86C34.2124 35.86 34.3357 35.8567 34.4491 35.85C34.5624 35.8367 34.6557 35.8233 34.7291 35.81V33.1C34.6357 33.04 34.5124 32.99 34.3591 32.95C34.2124 32.91 34.0624 32.89 33.9091 32.89C33.2024 32.89 32.8491 33.37 32.8491 34.33ZM36.2191 36.83C36.0857 36.87 35.9324 36.91 35.7591 36.95C35.5857 36.9833 35.4024 37.0133 35.2091 37.04C35.0224 37.0667 34.8291 37.0867 34.6291 37.1C34.4357 37.12 34.2491 37.13 34.0691 37.13C33.6357 37.13 33.2491 37.0667 32.9091 36.94C32.5691 36.8133 32.2824 36.6333 32.0491 36.4C31.8157 36.16 31.6357 35.8733 31.5091 35.54C31.3891 35.2 31.3291 34.82 31.3291 34.4C31.3291 33.9733 31.3824 33.59 31.4891 33.25C31.5957 32.9033 31.7491 32.61 31.9491 32.37C32.1491 32.13 32.3924 31.9467 32.6791 31.82C32.9724 31.6933 33.3057 31.63 33.6791 31.63C33.8857 31.63 34.0691 31.65 34.2291 31.69C34.3957 31.73 34.5624 31.7867 34.7291 31.86V29.48L36.2191 29.24V36.83Z" fill="#F2F2F2"/>
<path d="M26.07 4H19.9C17.2 4 15 5.07 15 7.79V22.97C15 23.53 15.45 23.99 16.01 23.99C16.18 23.99 16.351 23.939 16.5 23.86L22.99 20.62L29.47 23.86C29.71 24 30 24.04 30.26 23.96C30.53 23.88 30.75 23.7 30.88 23.46C30.96 23.31 31 23.14 31 22.97V7.79C30.97 5.07 28.78 4 26.07 4Z" fill="#F2F2F2"/>
</svg>
